<?xml version="1.0" encoding="UTF-8" standalone="no"?>
<!-- Created with Inkscape (http://www.inkscape.org/) -->

<svg
   xmlns:dc="http://purl.org/dc/elements/1.1/"
   xmlns:cc="http://creativecommons.org/ns#"
   xmlns:rdf="http://www.w3.org/1999/02/22-rdf-syntax-ns#"
   xmlns:svg="http://www.w3.org/2000/svg"
   xmlns="http://www.w3.org/2000/svg"
   xmlns:sodipodi="http://sodipodi.sourceforge.net/DTD/sodipodi-0.dtd"
   xmlns:inkscape="http://www.inkscape.org/namespaces/inkscape"
   id="svg2"
   version="1.1"
   inkscape:version="0.48.5 r10040"
   width="1417.325"
   height="1417.325"
   xml:space="preserve"
   sodipodi:docname="ACP LOGO1.ai"><metadata
     id="metadata8"><rdf:RDF><cc:Work
         rdf:about=""><dc:format>image/svg+xml</dc:format><dc:type
           rdf:resource="http://purl.org/dc/dcmitype/StillImage" /><dc:title></dc:title></cc:Work></rdf:RDF></metadata><defs
     id="defs6"><clipPath
       clipPathUnits="userSpaceOnUse"
       id="clipPath20"><path
         d="m 0,1133.86 1133.86,0 L 1133.86,0 0,0 0,1133.86 z"
         id="path22" /></clipPath><clipPath
       clipPathUnits="userSpaceOnUse"
       id="clipPath36"><path
         d="m 0,1133.86 1133.86,0 L 1133.86,0 0,0 0,1133.86 z"
         id="path38" /></clipPath></defs><sodipodi:namedview
     pagecolor="#ffffff"
     bordercolor="#666666"
     borderopacity="1"
     objecttolerance="10"
     gridtolerance="10"
     guidetolerance="10"
     inkscape:pageopacity="0"
     inkscape:pageshadow="2"
     inkscape:window-width="1175"
     inkscape:window-height="811"
     id="namedview4"
     showgrid="false"
     inkscape:zoom="0.16651086"
     inkscape:cx="708.66248"
     inkscape:cy="708.66248"
     inkscape:window-x="343"
     inkscape:window-y="112"
     inkscape:window-maximized="0"
     inkscape:current-layer="g10" /><g
     id="g10"
     inkscape:groupmode="layer"
     inkscape:label="ACP LOGO1"
     transform="matrix(1.25,0,0,-1.25,0,1417.325)"><g
       id="g12"
       transform="translate(12.5305,435.337)"><path
         d="M 0,0 554.165,554.165 1108.329,0 0,0 z"
         style="fill:#61afdf;fill-opacity:1;fill-rule:nonzero;stroke:none"
         id="path14" /></g><g
       id="g16"><g
         id="g18"
         clip-path="url(#clipPath20)"><g
           id="g24"
           transform="translate(12.5305,435.337)"><path
             d="M 0,0 554.165,554.165 1108.329,0 0,0 z"
             style="fill:none;stroke:#4179b8;stroke-opacity:1;stroke-width:7;stroke-linecap:butt;stroke-linejoin:miter;stroke-miterlimit:10;stroke-dasharray:none"
             id="path26" /></g></g></g><g
       id="g32"
       transform="translate(4.8044922,-9.6089797)"><g
         id="g34"
         clip-path="url(#clipPath36)"><g
           id="g40"
           transform="translate(480.0566,552.2588)"><path
             d="m 0,0 0,217.238 c 0,15.618 -2.815,27.663 -8.433,36.14 -6.648,10.059 -17.25,15.091 -31.816,15.091 -18.147,0 -30.03,-7.545 -35.648,-22.637 -3.067,-8.209 -4.6,-23.568 -4.6,-46.068 l -16.1,0 6.134,-19.063 9.966,0 0,-180.701 18.783,0 0,180.701 42.931,0 L -18.783,0 0,0 z m -18.783,199.764 -42.931,0 0,23.828 c 0,7.676 1.976,13.832 5.941,18.467 3.959,4.629 9.517,6.95 16.674,6.95 6.9,0 12.009,-2.321 15.333,-6.95 3.318,-4.635 4.983,-10.661 4.983,-18.07 l 0,-24.225 z"
             style="fill:none;stroke:#ffffff;stroke-width:5;stroke-linecap:butt;stroke-linejoin:miter;stroke-miterlimit:10;stroke-opacity:1;stroke-dasharray:none"
             id="path42"
             inkscape:connector-curvature="0" /></g><g
           id="g44"
           transform="translate(543.3037,590.3848)"><path
             d="m 0,0 c 24.784,-25.417 54.814,-38.126 90.08,-38.126 l 0,19.063 c -30.665,0 -56.479,10.853 -77.43,32.566 -20.957,21.706 -31.432,48.581 -31.432,80.62 0,32.299 10.601,59.305 31.815,81.017 21.208,21.707 46.891,32.566 77.047,32.566 l 0,19.063 c -36.032,0 -66.254,-12.646 -90.655,-37.927 C -24.981,163.555 -37.182,131.982 -37.182,94.123 -37.182,56.792 -24.79,25.417 0,0 z"
             style="fill:none;stroke:#ffffff;stroke-width:5;stroke-linecap:butt;stroke-linejoin:miter;stroke-miterlimit:10;stroke-opacity:1;stroke-dasharray:none"
             id="path46"
             inkscape:connector-curvature="0" /></g><g
           id="g48"
           transform="translate(653.6943,552.2588)"><path
             d="m 0,0 18.783,0 0,50.04 c 28.875,3.177 52.641,14.558 71.297,34.154 18.651,19.591 27.983,44.214 27.983,73.869 0,29.389 -9.84,54.54 -29.516,75.458 -19.681,20.912 -43.572,31.374 -71.681,31.374 L 0,264.895 0,0 z M 76.281,95.712 C 60.69,78.498 41.524,69.897 18.783,69.897 l 0,176.332 c 23.766,-2.649 43.184,-11.914 58.265,-27.8 15.075,-15.886 22.615,-36.01 22.615,-60.366 0,-24.362 -7.798,-45.144 -23.382,-62.351 z"
             style="fill:none;stroke:#ffffff;stroke-width:5;stroke-linecap:butt;stroke-linejoin:miter;stroke-miterlimit:10;stroke-opacity:1;stroke-dasharray:none"
             id="path50"
             inkscape:connector-curvature="0" /></g></g></g><text
       transform="matrix(1,0,0,-0.68386385,116.8887,451.21)"
       id="text52"><tspan
         style="fill:#20408b;fill-opacity:1;fill-rule:nonzero;stroke:none;font-family:Century Gothic;font-variant:normal;font-weight:normal;font-stretch:normal;font-size:170.5977;writing-mode:lr;-inkscape-font-specification:CenturyGothic"
         x="0 38.5550802 142.6196772 208.8115848 266.6442051 317.9941128 421.7175144 581.738157 692.626662 796.691259 854.5238793"
         y="0"
         sodipodi:role="line"
         id="tspan54">Instruments</tspan></text>
</g></svg>