<?xml version="1.0" encoding="UTF-8" standalone="no"?>
<!-- Created with Inkscape (http://www.inkscape.org/) -->

<svg
   xmlns:dc="http://purl.org/dc/elements/1.1/"
   xmlns:cc="http://creativecommons.org/ns#"
   xmlns:rdf="http://www.w3.org/1999/02/22-rdf-syntax-ns#"
   xmlns:svg="http://www.w3.org/2000/svg"
   xmlns="http://www.w3.org/2000/svg"
   version="1.2"
   width="5269.1821"
   height="703.28125"
   id="svg2"
   xml:space="preserve"><metadata
     id="metadata8"><rdf:RDF><cc:Work
         rdf:about=""><dc:format>image/svg+xml</dc:format><dc:type
           rdf:resource="http://purl.org/dc/dcmitype/StillImage" /><dc:title></dc:title></cc:Work></rdf:RDF></metadata><defs
     id="defs6"><linearGradient
       id="linearGradient3906"><stop
         id="stop3908"
         style="stop-color:#000000;stop-opacity:1"
         offset="0" /></linearGradient><clipPath
       id="clipPath20"><path
         d="m 0,1133.86 1133.86,0 L 1133.86,0 0,0 0,1133.86 z"
         id="path22" /></clipPath><clipPath
       id="clipPath36"><path
         d="m 0,1133.86 1133.86,0 L 1133.86,0 0,0 0,1133.86 z"
         id="path38" /></clipPath><filter
       color-interpolation-filters="sRGB"
       id="filter6082"><feGaussianBlur
         id="feGaussianBlur6084"
         stdDeviation="8.0870858" /></filter></defs><g
     transform="matrix(1.25,0,0,-1.25,6.8949784,1399.2235)"
     id="g10"><g
       transform="matrix(0.4203377,0,0,-0.4203377,26.69256,1060.6388)"
       id="g3"><polygon
         points="566.929,396.851 0,396.851 0,0 0,0 566.929,0 "
         id="polygon5"
         style="fill:#00a651;fill-rule:evenodd" /><polygon
         points="283.465,348.66 518.741,198.426 283.465,48.188 283.465,48.188 48.188,198.426 "
         id="polygon7"
         style="fill:#ffcb05;fill-rule:evenodd" /><path
         d="m 283.257,99.419 c 54.671,0 99.007,44.335 99.007,99.006 0,54.671 -44.336,99.005 -99.007,99.005 -54.671,0 -99.006,-44.335 -99.006,-99.005 0,-54.67 44.335,-99.006 99.006,-99.006 l 0,0 z"
         id="path9"
         style="fill:#2e3192;fill-rule:evenodd" /><polygon
         points="310.542,168.482 311.496,164.755 308.533,162.3 312.374,162.054 313.793,158.478 313.793,158.478 315.211,162.054 319.051,162.3 316.089,164.755 317.042,168.482 313.793,166.424 "
         id="polygon11"
         style="fill:#ffffff;fill-rule:evenodd" /><polygon
         points="304.378,195.766 305.065,193.085 302.933,191.319 305.695,191.143 306.717,188.571 306.717,188.571 307.738,191.143 310.5,191.319 308.37,193.085 309.054,195.766 306.717,194.286 "
         id="polygon13"
         style="fill:#ffffff;fill-rule:evenodd" /><polygon
         points="199.52,186.859 200.473,183.132 197.511,180.677 201.351,180.431 202.771,176.855 202.771,176.855 204.19,180.431 208.03,180.677 205.068,183.132 206.021,186.859 202.771,184.801 "
         id="polygon15"
         style="fill:#ffffff;fill-rule:evenodd" /><polygon
         points="242.009,206.411 242.814,203.266 240.314,201.192 243.554,200.986 244.752,197.969 244.752,197.969 245.951,200.986 249.191,201.192 246.691,203.266 247.496,206.411 244.752,204.675 "
         id="polygon17"
         style="fill:#ffffff;fill-rule:evenodd" /><polygon
         points="218.268,219.438 218.78,217.433 217.187,216.112 219.252,215.98 220.016,214.056 220.016,214.056 220.78,215.98 222.846,216.112 221.252,217.433 221.765,219.438 220.016,218.331 "
         id="polygon19"
         style="fill:#ffffff;fill-rule:evenodd" /><polygon
         points="207.676,228.052 208.628,224.322 205.667,221.869 209.506,221.623 210.926,218.048 210.926,218.048 212.346,221.623 216.185,221.869 213.224,224.322 214.177,228.052 210.926,225.992 "
         id="polygon21"
         style="fill:#ffffff;fill-rule:evenodd" /><polygon
         points="197.793,235.902 198.597,232.757 196.098,230.686 199.337,230.478 200.536,227.459 200.536,227.459 201.734,230.478 204.974,230.686 202.475,232.757 203.279,235.902 200.536,234.166 "
         id="polygon23"
         style="fill:#ffffff;fill-rule:evenodd" /><polygon
         points="228.244,236.676 229.048,233.529 226.549,231.457 229.789,231.25 230.987,228.232 230.987,228.232 232.185,231.25 235.424,231.457 232.925,233.529 233.729,236.676 230.987,234.938 "
         id="polygon25"
         style="fill:#ffffff;fill-rule:evenodd" /><polygon
         points="225.06,246.553 225.745,243.872 223.615,242.106 226.377,241.93 227.398,239.356 227.398,239.356 228.419,241.93 231.181,242.106 229.051,243.872 229.736,246.553 227.398,245.072 "
         id="polygon27"
         style="fill:#ffffff;fill-rule:evenodd" /><polygon
         points="238.606,257.982 239.559,254.255 236.597,251.799 240.437,251.554 241.856,247.978 241.856,247.978 243.277,251.554 247.116,251.799 244.154,254.255 245.107,257.982 241.856,255.925 "
         id="polygon29"
         style="fill:#ffffff;fill-rule:evenodd" /><polygon
         points="282.71,279.035 283.076,277.603 281.939,276.661 283.413,276.565 283.958,275.191 283.958,275.191 284.504,276.565 285.979,276.661 284.84,277.603 285.208,279.035 283.958,278.244 "
         id="polygon31"
         style="fill:#ffffff;fill-rule:evenodd" /><polygon
         points="281.469,219.738 282.273,216.592 279.774,214.52 283.014,214.312 284.212,211.295 284.212,211.295 285.411,214.312 288.65,214.52 286.152,216.592 286.955,219.738 284.212,218.001 "
         id="polygon33"
         style="fill:#ffffff;fill-rule:evenodd" /><polygon
         points="290.545,228.227 291.348,225.081 288.849,223.01 292.088,222.802 293.288,219.785 293.288,219.785 294.486,222.802 297.726,223.01 295.225,225.081 296.03,228.227 293.288,226.489 "
         id="polygon35"
         style="fill:#ffffff;fill-rule:evenodd" /><polygon
         points="275.958,233.244 276.47,231.239 274.876,229.919 276.942,229.787 277.706,227.862 277.706,227.862 278.47,229.787 280.536,229.919 278.942,231.239 279.455,233.244 277.706,232.138 "
         id="polygon37"
         style="fill:#ffffff;fill-rule:evenodd" /><polygon
         points="268.131,228.803 268.816,226.122 266.686,224.354 269.448,224.179 270.469,221.606 270.469,221.606 271.49,224.179 274.252,224.354 272.122,226.122 272.807,228.803 270.469,227.322 "
         id="polygon39"
         style="fill:#ffffff;fill-rule:evenodd" /><polygon
         points="280.384,249.387 281.337,245.659 278.375,243.204 282.214,242.958 283.635,239.383 283.635,239.383 285.054,242.958 288.894,243.204 285.932,245.659 286.885,249.387 283.635,247.329 "
         id="polygon41"
         style="fill:#ffffff;fill-rule:evenodd" /><polygon
         points="301.753,258.205 302.438,255.522 300.307,253.758 303.069,253.581 304.091,251.01 304.091,251.01 305.112,253.581 307.873,253.758 305.744,255.522 306.428,258.205 304.091,256.724 "
         id="polygon43"
         style="fill:#ffffff;fill-rule:evenodd" /><polygon
         points="309.481,271.013 310.286,267.866 307.787,265.796 311.026,265.587 312.225,262.57 312.225,262.57 313.421,265.587 316.662,265.796 314.163,267.866 314.967,271.013 312.225,269.275 "
         id="polygon45"
         style="fill:#ffffff;fill-rule:evenodd" /><polygon
         points="318.943,260.7 319.629,258.02 317.499,256.255 320.259,256.078 321.282,253.505 321.282,253.505 322.302,256.078 325.064,256.255 322.934,258.02 323.62,260.7 321.282,259.221 "
         id="polygon47"
         style="fill:#ffffff;fill-rule:evenodd" /><polygon
         points="330.774,278.452 331.458,275.77 329.328,274.005 332.091,273.828 333.112,271.256 333.112,271.256 334.131,273.828 336.895,274.005 334.764,275.77 335.449,278.452 333.112,276.971 "
         id="polygon49"
         style="fill:#ffffff;fill-rule:evenodd" /><polygon
         points="330.483,268.605 331.288,265.46 328.79,263.387 332.029,263.181 333.226,260.162 333.226,260.162 334.424,263.181 337.665,263.387 335.166,265.46 335.97,268.605 333.226,266.868 "
         id="polygon51"
         style="fill:#ffffff;fill-rule:evenodd" /><polygon
         points="330.619,258.4 331.303,255.72 329.174,253.953 331.935,253.776 332.956,251.204 332.956,251.204 333.978,253.776 336.74,253.953 334.608,255.72 335.295,258.4 332.956,256.921 "
         id="polygon53"
         style="fill:#ffffff;fill-rule:evenodd" /><polygon
         points="340.417,258.498 341.103,255.815 338.971,254.051 341.733,253.874 342.755,251.302 342.755,251.302 343.776,253.874 346.538,254.051 344.408,255.815 345.093,258.498 342.755,257.017 "
         id="polygon55"
         style="fill:#ffffff;fill-rule:evenodd" /><polygon
         points="349.278,254.866 350.083,251.723 347.584,249.649 350.824,249.443 352.022,246.425 352.022,246.425 353.219,249.443 356.459,249.649 353.96,251.723 354.765,254.866 352.022,253.131 "
         id="polygon57"
         style="fill:#ffffff;fill-rule:evenodd" /><polygon
         points="353.969,246.995 354.774,243.851 352.276,241.778 355.515,241.571 356.712,238.554 356.712,238.554 357.911,241.571 361.151,241.778 358.652,243.851 359.457,246.995 356.712,245.26 "
         id="polygon59"
         style="fill:#ffffff;fill-rule:evenodd" /><polygon
         points="349.535,237.941 350.488,234.215 347.526,231.759 351.366,231.513 352.786,227.938 352.786,227.938 354.206,231.513 358.044,231.759 355.083,234.215 356.037,237.941 352.786,235.882 "
         id="polygon61"
         style="fill:#ffffff;fill-rule:evenodd" /><polygon
         points="364.968,237.546 365.655,234.865 363.524,233.101 366.285,232.922 367.307,230.35 367.307,230.35 368.328,232.922 371.089,233.101 368.96,234.865 369.645,237.546 367.307,236.066 "
         id="polygon63"
         style="fill:#ffffff;fill-rule:evenodd" /><path
         d="m 224.148,167.842 c 58.889,0 112.877,21.658 154.417,57.411 1.375,-4.817 2.388,-9.784 3.017,-14.866 -43.067,-34.931 -97.876,-55.908 -157.433,-55.908 -10.328,0 -20.507,0.644 -30.513,1.869 -2.14,4.562 -3.944,9.309 -5.375,14.214 11.708,-1.791 23.692,-2.72 35.887,-2.72 l 0,0 z"
         id="path65"
         style="fill:#ffffff;fill-rule:evenodd" /><path
         d="m 198.672,162.697 c 0.083,0.969 0.365,1.703 0.841,2.203 0.476,0.5 1.101,0.715 1.875,0.649 0.781,-0.067 1.366,-0.387 1.755,-0.961 0.389,-0.573 0.54,-1.345 0.457,-2.314 -0.083,-0.967 -0.364,-1.701 -0.845,-2.2 -0.481,-0.5 -1.112,-0.715 -1.893,-0.648 -0.773,0.067 -1.353,0.386 -1.737,0.958 -0.384,0.57 -0.536,1.341 -0.453,2.313 l 0,0 z m -1.846,0.158 c -0.122,-1.422 0.169,-2.583 0.872,-3.484 0.703,-0.901 1.712,-1.41 3.028,-1.522 1.314,-0.113 2.396,0.215 3.248,0.985 0.851,0.77 1.337,1.864 1.459,3.282 0.122,1.419 -0.17,2.582 -0.878,3.485 -0.708,0.903 -1.718,1.412 -3.032,1.524 -1.316,0.113 -2.397,-0.215 -3.244,-0.985 -0.846,-0.77 -1.331,-1.865 -1.453,-3.285 l 0,0 z m 14.379,-1.645 2.137,-0.071 c 0.462,-0.016 0.799,-0.122 1.012,-0.316 0.21,-0.196 0.309,-0.495 0.295,-0.899 -0.013,-0.383 -0.128,-0.67 -0.346,-0.862 -0.218,-0.191 -0.538,-0.279 -0.956,-0.265 l -2.22,0.074 0.078,2.339 0,0 z m -1.652,5.03 -0.295,-8.832 4.284,-0.143 c 0.962,-0.033 1.683,0.15 2.16,0.546 0.479,0.396 0.731,1.019 0.759,1.866 0.018,0.538 -0.08,0.993 -0.294,1.36 -0.213,0.368 -0.531,0.624 -0.95,0.77 0.389,0.124 0.668,0.322 0.841,0.596 0.171,0.275 0.278,0.708 0.322,1.299 l 0.072,1.041 c 0,0.008 0,0.021 0.001,0.037 0.027,0.526 0.153,0.843 0.374,0.946 l 0.008,0.271 -1.993,0.067 c -0.067,-0.123 -0.12,-0.273 -0.16,-0.454 -0.039,-0.181 -0.069,-0.397 -0.083,-0.649 l -0.056,-0.928 c -0.039,-0.546 -0.153,-0.913 -0.345,-1.097 -0.193,-0.187 -0.532,-0.271 -1.016,-0.255 l -1.926,0.064 0.115,3.434 -1.818,0.061 0,0 z m 13.041,-1.985 1.458,0.028 c 0.844,0.016 1.46,-0.193 1.845,-0.628 0.387,-0.433 0.589,-1.148 0.608,-2.139 0.019,-0.987 -0.144,-1.717 -0.486,-2.187 -0.344,-0.472 -0.889,-0.713 -1.638,-0.728 l -1.679,-0.032 -0.108,5.686 0,0 z m -1.812,1.562 0.168,-8.835 3.46,0.065 c 1.355,0.026 2.36,0.412 3.011,1.155 0.652,0.744 0.965,1.86 0.937,3.348 -0.015,0.807 -0.152,1.517 -0.409,2.128 -0.258,0.611 -0.626,1.1 -1.099,1.466 -0.358,0.273 -0.76,0.467 -1.211,0.581 -0.451,0.112 -1.079,0.162 -1.888,0.146 l -2.969,-0.054 0,0 z m 11.212,0.197 0.476,-8.823 6.408,0.346 -0.083,1.534 -4.618,-0.249 -0.101,1.881 4.223,0.228 -0.082,1.509 -4.223,-0.228 -0.123,2.27 4.834,0.261 -0.088,1.63 -6.623,-0.359 0,0 z m 10.4,0.618 0.937,-8.786 2.674,0.285 1.034,6.874 2.438,-6.504 2.684,0.287 -0.937,8.787 -1.694,-0.181 0.755,-7.086 -2.54,6.896 -1.849,-0.198 -1.053,-7.279 -0.755,7.086 -1.694,-0.181 0,0 z m 23.415,3.014 1.851,-8.64 6.276,1.344 -0.322,1.502 -4.521,-0.968 -0.395,1.842 4.135,0.885 -0.316,1.479 -4.136,-0.886 -0.476,2.223 4.734,1.014 -0.342,1.597 -6.488,-1.392 0,0 z m 23.389,0.546 1.698,0.458 c 0.458,0.124 0.817,0.116 1.08,-0.022 0.261,-0.14 0.45,-0.424 0.566,-0.857 0.109,-0.405 0.089,-0.739 -0.058,-1.004 -0.15,-0.263 -0.426,-0.449 -0.831,-0.559 l -1.79,-0.482 -0.665,2.466 0,0 z m -0.428,1.543 -0.817,3.035 -1.756,-0.473 2.3,-8.532 3.793,1.023 c 0.896,0.241 1.512,0.658 1.85,1.247 0.334,0.589 0.383,1.333 0.139,2.235 -0.236,0.88 -0.646,1.497 -1.225,1.852 -0.58,0.355 -1.293,0.42 -2.127,0.195 l -2.157,-0.582 0,0 z m 10.624,1.389 2.044,0.628 c 0.441,0.136 0.796,0.146 1.061,0.03 0.263,-0.116 0.452,-0.367 0.572,-0.754 0.112,-0.366 0.096,-0.675 -0.047,-0.927 -0.145,-0.251 -0.419,-0.439 -0.818,-0.562 l -2.123,-0.653 -0.689,2.238 0,0 z m -3.199,4.218 2.597,-8.446 4.097,1.259 c 0.921,0.283 1.542,0.69 1.863,1.22 0.324,0.531 0.36,1.201 0.11,2.012 -0.157,0.515 -0.397,0.913 -0.721,1.19 -0.322,0.278 -0.705,0.417 -1.147,0.418 0.326,0.244 0.525,0.522 0.601,0.838 0.072,0.316 0.031,0.76 -0.118,1.333 l -0.271,1.007 c -0.004,0.008 -0.008,0.02 -0.012,0.035 -0.144,0.506 -0.129,0.847 0.046,1.017 l -0.079,0.259 -1.908,-0.586 c -0.022,-0.138 -0.024,-0.297 -0.004,-0.481 0.023,-0.184 0.064,-0.398 0.134,-0.64 l 0.249,-0.897 c 0.141,-0.528 0.152,-0.912 0.03,-1.149 -0.122,-0.239 -0.415,-0.43 -0.876,-0.571 l -1.842,-0.566 -1.01,3.285 -1.739,-0.537 0,0 z m 13.458,-0.031 c -0.334,0.914 -0.39,1.698 -0.169,2.352 0.222,0.654 0.696,1.114 1.424,1.38 0.737,0.269 1.403,0.227 1.998,-0.129 0.595,-0.356 1.059,-0.991 1.392,-1.904 0.334,-0.912 0.389,-1.696 0.164,-2.351 -0.224,-0.656 -0.706,-1.118 -1.441,-1.387 -0.729,-0.267 -1.39,-0.223 -1.979,0.133 -0.591,0.356 -1.055,0.991 -1.389,1.906 l 0,0 z m -1.74,-0.637 c 0.489,-1.34 1.245,-2.27 2.262,-2.789 1.019,-0.52 2.148,-0.554 3.39,-0.101 1.238,0.454 2.081,1.208 2.525,2.266 0.446,1.057 0.426,2.254 -0.063,3.591 -0.49,1.339 -1.246,2.268 -2.269,2.788 -1.022,0.52 -2.153,0.554 -3.392,0.101 -1.242,-0.454 -2.082,-1.208 -2.524,-2.264 -0.442,-1.056 -0.42,-2.253 0.071,-3.592 l 0,0 z m 16.346,10.378 c -0.477,0.28 -0.947,0.433 -1.413,0.462 -0.465,0.026 -0.958,-0.07 -1.479,-0.292 -1.135,-0.484 -1.887,-1.271 -2.256,-2.36 -0.368,-1.09 -0.278,-2.278 0.27,-3.561 0.552,-1.295 1.346,-2.182 2.379,-2.658 1.033,-0.477 2.135,-0.465 3.306,0.033 1.019,0.434 1.746,1.031 2.184,1.793 0.433,0.762 0.532,1.597 0.288,2.501 l -1.705,-0.727 c 0.077,-0.466 0.004,-0.877 -0.219,-1.233 -0.226,-0.356 -0.594,-0.645 -1.105,-0.862 -0.679,-0.29 -1.32,-0.269 -1.921,0.064 -0.603,0.333 -1.088,0.939 -1.463,1.818 -0.377,0.884 -0.47,1.661 -0.278,2.335 0.191,0.672 0.641,1.159 1.348,1.46 0.528,0.226 1.039,0.258 1.528,0.098 0.49,-0.162 0.896,-0.497 1.21,-1.005 l -1.842,-0.784 0.593,-1.391 3.367,1.435 -1.876,4.398 -1.12,-0.478 0.204,-1.046 0,0 z m 8.402,-0.233 1.92,0.941 c 0.416,0.203 0.763,0.268 1.043,0.195 0.277,-0.074 0.504,-0.292 0.683,-0.656 0.169,-0.344 0.2,-0.651 0.1,-0.923 -0.104,-0.271 -0.346,-0.499 -0.721,-0.683 l -1.994,-0.977 -1.031,2.103 0,0 z m -3.819,3.666 3.885,-7.936 3.85,1.885 c 0.864,0.423 1.416,0.923 1.65,1.497 0.236,0.574 0.167,1.242 -0.206,2.003 -0.236,0.484 -0.537,0.839 -0.899,1.063 -0.361,0.225 -0.761,0.302 -1.198,0.233 0.285,0.292 0.438,0.598 0.462,0.922 0.022,0.323 -0.087,0.755 -0.325,1.298 l -0.426,0.953 c -0.004,0.007 -0.009,0.018 -0.015,0.032 -0.224,0.478 -0.263,0.817 -0.114,1.012 l -0.12,0.242 -1.792,-0.876 c -0.002,-0.14 0.022,-0.297 0.071,-0.476 0.051,-0.178 0.126,-0.383 0.232,-0.612 l 0.385,-0.846 c 0.224,-0.5 0.295,-0.878 0.21,-1.131 -0.082,-0.254 -0.341,-0.488 -0.776,-0.701 l -1.729,-0.848 -1.512,3.086 -1.633,-0.8 0,0 z m 9.874,5.071 4.296,-7.722 5.609,3.12 -0.747,1.343 -4.04,-2.248 -0.916,1.646 3.695,2.056 -0.735,1.321 -3.695,-2.056 -1.104,1.986 4.229,2.354 -0.793,1.426 -5.799,-3.226 0,0 z m 9.971,2.739 1.536,0.926 c -0.191,0.449 -0.206,0.859 -0.047,1.229 0.16,0.369 0.505,0.713 1.036,1.033 0.454,0.274 0.842,0.397 1.168,0.375 0.327,-0.021 0.584,-0.191 0.775,-0.506 0.275,-0.46 -0.154,-1.236 -1.293,-2.333 -0.015,-0.014 -0.028,-0.027 -0.039,-0.038 -0.03,-0.028 -0.075,-0.072 -0.137,-0.133 -0.614,-0.581 -1.014,-1.056 -1.197,-1.429 -0.165,-0.332 -0.229,-0.687 -0.195,-1.06 0.034,-0.374 0.169,-0.757 0.407,-1.152 0.444,-0.736 1.035,-1.149 1.772,-1.241 0.735,-0.09 1.576,0.149 2.521,0.719 0.884,0.533 1.45,1.159 1.696,1.876 0.245,0.719 0.153,1.465 -0.278,2.244 l -1.495,-0.902 c 0.193,-0.384 0.222,-0.747 0.083,-1.09 -0.139,-0.345 -0.442,-0.659 -0.91,-0.941 -0.409,-0.246 -0.769,-0.357 -1.088,-0.33 -0.317,0.026 -0.562,0.186 -0.741,0.481 -0.241,0.401 0.008,0.958 0.747,1.676 0.2,0.195 0.356,0.348 0.467,0.457 0.468,0.472 0.794,0.82 0.978,1.036 0.184,0.218 0.332,0.428 0.446,0.628 0.203,0.356 0.299,0.723 0.281,1.098 -0.015,0.375 -0.143,0.762 -0.381,1.155 -0.475,0.786 -1.106,1.236 -1.9,1.351 -0.791,0.113 -1.669,-0.12 -2.635,-0.703 -0.953,-0.574 -1.566,-1.245 -1.841,-2.013 -0.274,-0.77 -0.186,-1.573 0.264,-2.413 l 0,0 z m 9.313,5.824 1.486,1.006 c -0.216,0.437 -0.252,0.846 -0.112,1.225 0.141,0.377 0.467,0.737 0.98,1.086 0.438,0.297 0.82,0.441 1.146,0.436 0.328,-0.004 0.593,-0.159 0.801,-0.465 0.301,-0.445 -0.09,-1.242 -1.167,-2.397 -0.015,-0.016 -0.027,-0.028 -0.037,-0.042 -0.03,-0.028 -0.073,-0.075 -0.131,-0.139 -0.582,-0.611 -0.957,-1.106 -1.12,-1.489 -0.148,-0.342 -0.193,-0.698 -0.141,-1.069 0.054,-0.371 0.21,-0.747 0.467,-1.129 0.482,-0.711 1.096,-1.094 1.835,-1.146 0.738,-0.051 1.566,0.232 2.481,0.85 0.854,0.58 1.387,1.232 1.595,1.962 0.206,0.732 0.077,1.473 -0.395,2.228 l -1.446,-0.979 c 0.212,-0.374 0.259,-0.735 0.141,-1.085 -0.121,-0.351 -0.406,-0.681 -0.86,-0.986 -0.395,-0.269 -0.751,-0.397 -1.069,-0.389 -0.317,0.012 -0.572,0.158 -0.764,0.441 -0.265,0.388 -0.043,0.958 0.656,1.715 0.189,0.204 0.34,0.365 0.443,0.479 0.442,0.497 0.75,0.859 0.921,1.087 0.173,0.227 0.31,0.444 0.412,0.648 0.185,0.368 0.261,0.737 0.226,1.112 -0.036,0.374 -0.182,0.753 -0.44,1.134 -0.517,0.761 -1.171,1.178 -1.969,1.249 -0.797,0.071 -1.662,-0.208 -2.598,-0.841 -0.919,-0.622 -1.499,-1.324 -1.731,-2.106 -0.234,-0.785 -0.105,-1.581 0.39,-2.396 l 0,0 z m 11.228,5.96 c -0.587,0.774 -0.868,1.51 -0.85,2.198 0.021,0.69 0.34,1.269 0.959,1.737 0.626,0.473 1.275,0.627 1.947,0.462 0.673,-0.167 1.302,-0.641 1.889,-1.417 0.585,-0.772 0.866,-1.506 0.844,-2.2 -0.022,-0.692 -0.349,-1.273 -0.974,-1.746 -0.618,-0.47 -1.264,-0.619 -1.93,-0.452 -0.669,0.168 -1.297,0.64 -1.885,1.418 l 0,0 z m -1.478,-1.118 c 0.858,-1.139 1.854,-1.807 2.979,-2.006 1.126,-0.2 2.216,0.098 3.27,0.896 1.053,0.795 1.636,1.763 1.754,2.903 0.118,1.143 -0.253,2.281 -1.11,3.416 -0.861,1.137 -1.855,1.805 -2.984,2.004 -1.131,0.197 -2.223,-0.102 -3.273,-0.896 -1.055,-0.798 -1.638,-1.764 -1.752,-2.902 -0.114,-1.138 0.257,-2.278 1.116,-3.415 l 0,0 z"
         id="path67"
         style="fill:#00a651;fill-rule:evenodd" /></g><g
       transform="translate(2.9215173,560.25378)"
       id="g12"><path
         d="M 0,0 554.165,554.165 1108.329,0 0,0 z"
         id="path14"
         style="fill:#61afdf;fill-opacity:1;fill-rule:nonzero;stroke:none" /></g><g
       transform="translate(-9.6089827,124.91678)"
       id="g16"><g
         clip-path="url(#clipPath20)"
         id="g18"><g
           transform="translate(12.5305,435.337)"
           id="g24"><path
             d="M 0,0 554.165,554.165 1108.329,0 0,0 z"
             id="path26"
             style="fill:none;stroke:#4179b8;stroke-width:7;stroke-linecap:butt;stroke-linejoin:miter;stroke-miterlimit:10;stroke-opacity:1;stroke-dasharray:none" /></g></g></g><g
       transform="translate(-4.8044905,115.3078)"
       id="g32"><g
         clip-path="url(#clipPath36)"
         id="g34"><g
           transform="translate(480.0566,552.2588)"
           id="g40"><path
             d="m 0,0 0,217.238 c 0,15.618 -2.815,27.663 -8.433,36.14 -6.648,10.059 -17.25,15.091 -31.816,15.091 -18.147,0 -30.03,-7.545 -35.648,-22.637 -3.067,-8.209 -4.6,-23.568 -4.6,-46.068 l -16.1,0 6.134,-19.063 9.966,0 0,-180.701 18.783,0 0,180.701 42.931,0 L -18.783,0 0,0 z m -18.783,199.764 -42.931,0 0,23.828 c 0,7.676 1.976,13.832 5.941,18.467 3.959,4.629 9.517,6.95 16.674,6.95 6.9,0 12.009,-2.321 15.333,-6.95 3.318,-4.635 4.983,-10.661 4.983,-18.07 l 0,-24.225 z"
             id="path42"
             style="fill:none;stroke:#ffffff;stroke-width:5;stroke-linecap:butt;stroke-linejoin:miter;stroke-miterlimit:10;stroke-opacity:1;stroke-dasharray:none" /></g><g
           transform="translate(543.3037,590.3848)"
           id="g44"><path
             d="m 0,0 c 24.784,-25.417 54.814,-38.126 90.08,-38.126 l 0,19.063 c -30.665,0 -56.479,10.853 -77.43,32.566 -20.957,21.706 -31.432,48.581 -31.432,80.62 0,32.299 10.601,59.305 31.815,81.017 21.208,21.707 46.891,32.566 77.047,32.566 l 0,19.063 c -36.032,0 -66.254,-12.646 -90.655,-37.927 C -24.981,163.555 -37.182,131.982 -37.182,94.123 -37.182,56.792 -24.79,25.417 0,0 z"
             id="path46"
             style="fill:none;stroke:#ffffff;stroke-width:5;stroke-linecap:butt;stroke-linejoin:miter;stroke-miterlimit:10;stroke-opacity:1;stroke-dasharray:none" /></g><g
           transform="translate(653.6943,552.2588)"
           id="g48"><path
             d="m 0,0 18.783,0 0,50.04 c 28.875,3.177 52.641,14.558 71.297,34.154 18.651,19.591 27.983,44.214 27.983,73.869 0,29.389 -9.84,54.54 -29.516,75.458 -19.681,20.912 -43.572,31.374 -71.681,31.374 L 0,264.895 0,0 z M 76.281,95.712 C 60.69,78.498 41.524,69.897 18.783,69.897 l 0,176.332 c 23.766,-2.649 43.184,-11.914 58.265,-27.8 15.075,-15.886 22.615,-36.01 22.615,-60.366 0,-24.362 -7.798,-45.144 -23.382,-62.351 z"
             id="path50"
             style="fill:none;stroke:#ffffff;stroke-width:5;stroke-linecap:butt;stroke-linejoin:miter;stroke-miterlimit:10;stroke-opacity:1;stroke-dasharray:none" /></g></g></g><text
       x="88.716103"
       y="-696.67981"
       transform="scale(1.2092474,-0.82696061)"
       id="text52"
       style="font-size:9.92352772px"><tspan
         x="88.716103 120.59963 206.65695 261.39505 309.22034 351.68469 437.4599 569.79065 661.49103 747.5484 795.37366"
         y="-696.67981"
         id="tspan54"
         style="font-size:141.07757568px;font-variant:normal;font-weight:normal;font-stretch:normal;writing-mode:lr-tb;fill:#20408b;fill-opacity:1;fill-rule:nonzero;stroke:none;font-family:Century Gothic;-inkscape-font-specification:CenturyGothic">Instruments</tspan></text>
<text
       x="-372.34808"
       y="1202.4094"
       transform="matrix(0.8,0,0,-0.8,-654.50787,1119.3788)"
       id="text3086"
       xml:space="preserve"
       style="font-size:40px;font-style:normal;font-weight:normal;line-height:125%;letter-spacing:0px;word-spacing:0px;fill:#000000;fill-opacity:1;stroke:none;font-family:Sans"><tspan
         x="-372.34808"
         y="1202.4094"
         id="tspan3088" /></text>
<text
       x="1329.4154"
       y="-607.82587"
       transform="scale(0.91247687,-1.0959182)"
       id="text5983"
       xml:space="preserve"
       style="font-size:386.05606079px;font-style:normal;font-variant:normal;font-weight:normal;font-stretch:normal;text-align:start;line-height:100%;letter-spacing:0px;word-spacing:0px;writing-mode:lr-tb;text-anchor:start;fill:#ffffff;fill-opacity:1;stroke:#000000;stroke-width:2.68079996;stroke-miterlimit:4;stroke-opacity:1;stroke-dasharray:none;filter:url(#filter6082);font-family:Sans;-inkscape-font-specification:Sans"><tspan
         x="1329.4154"
         y="-607.82587"
         id="tspan5985"
         style="fill:#ffffff;fill-opacity:1;stroke-width:2.68079996;stroke-miterlimit:4;stroke-dasharray:none"><tspan
           x="1329.4154"
           y="-607.82587"
           id="tspan5987"
           style="fill:#ffffff;fill-opacity:1;stroke:#000000;stroke-width:2.68079996;stroke-miterlimit:4;stroke-dasharray:none">ACP Instruments</tspan></tspan></text>
</g></svg>